<?xml version="1.0" encoding="UTF-8"?>
<svg id="Layer_2" data-name="Layer 2" xmlns="http://www.w3.org/2000/svg" viewBox="0 0 343.23 341.12">
  <defs>
    <style>
      .cls-1 {
        fill: #00445c;
      }
    </style>
  </defs>
  <g id="Layer_1-2" data-name="Layer 1">
    <path id="Path_13" data-name="Path 13" class="cls-1" d="m343.23,171.59C343.22,76.81,266.37-.01,171.59,0,76.81.01-.01,76.86,0,171.64c.01,84.42,61.42,156.3,144.8,169.48v-119.95h-43.58v-49.58h43.58v-37.81c0-43.01,25.63-66.76,64.83-66.76,12.87.18,25.71,1.3,38.42,3.36v42.22h-21.61c-13.58-1.8-26.05,7.74-27.85,21.32-.24,1.82-.28,3.65-.12,5.48v32.2h47.59l-7.63,49.58h-40.02v119.93c83.39-13.19,144.8-85.08,144.8-169.5"/>
  </g>
</svg>