<?xml version="1.0" encoding="UTF-8"?>
<svg id="Layer_2" data-name="Layer 2" xmlns="http://www.w3.org/2000/svg" xmlns:xlink="http://www.w3.org/1999/xlink" viewBox="0 0 342.51 342.51">
  <defs>
    <style>
      .cls-1 {
        fill: none;
      }

      .cls-2 {
        clip-path: url(#clippath);
      }

      .cls-3 {
        fill: #00445c;
      }
    </style>
    <clipPath id="clippath">
      <rect class="cls-1" width="342.51" height="342.51"/>
    </clipPath>
  </defs>
  <g id="Layer_1-2" data-name="Layer 1">
    <g class="cls-2">
      <path class="cls-3" d="m172.57-1.62C79.17-1.62,3.45,74.1,3.45,167.5s75.72,169.13,169.13,169.13,169.13-75.72,169.13-169.13S265.98-1.62,172.57-1.62Zm-55.49,266.01c0,2.35-.57,3.07-3.01,3.03-12.03-.13-24.1-.1-36.09,0-1.93,0-2.54-.47-2.54-2.46.06-42.88.06-85.76,0-128.63,0-1.78.43-2.41,2.31-2.4,12.2.08,24.41.1,36.62,0,2.35,0,2.66.89,2.66,2.89-.06,21.35-.06,42.7,0,64.05h.04v63.52Zm-20.6-148.82c-13.27.06-24.07-10.66-24.13-23.93-.06-13.27,10.66-24.07,23.93-24.13.04,0,.08,0,.13,0,13.19.06,23.88,10.72,23.99,23.91h.01c.06,13.28-10.66,24.08-23.93,24.14Zm176.27,79.02c0,23.37-.06,46.72,0,70.09,0,2.18-.61,2.77-2.77,2.74-12.03-.1-24.07-.1-36.1,0-2.12,0-2.54-.63-2.54-2.64.07-22.23.07-44.46,0-66.69.13-5.56-.52-11.11-1.93-16.49-2.05-9.4-10.92-15.7-20.47-14.51-12.34-.63-22.86,8.86-23.49,21.21-.02.38-.03.76-.03,1.13-.43,3.46-.64,6.94-.63,10.43v64.86c0,2.16-.53,2.79-2.73,2.78-12.13-.11-24.25-.11-36.37,0-1.94,0-2.54-.51-2.54-2.54.05-42.8.05-85.61,0-128.42,0-2.12.7-2.61,2.69-2.54,11.51.08,23.02.08,34.54,0,2.12,0,2.66.67,2.63,2.68-.11,5.07,0,10.24,0,15.35v-.09c2.79-3.12,5.09-6.34,7.93-8.98,8.34-8.14,19.61-12.58,31.26-12.33,6.63-.11,13.24.7,19.65,2.4,13.7,3.78,24.19,14.82,27.27,28.7,2.72,10.74,3.94,21.8,3.63,32.87Z"/>
    </g>
  </g>
</svg>