<?xml version="1.0" encoding="UTF-8"?>
<svg id="Layer_2" data-name="Layer 2" xmlns="http://www.w3.org/2000/svg" viewBox="0 0 340.23 340.23">
  <defs>
    <style>
      .cls-1 {
        fill: #00445c;
      }
    </style>
  </defs>
  <g id="Layer_1-2" data-name="Layer 1">
    <g>
      <path class="cls-1" d="m174.62,137.5c-5.41,0-10.42,1.35-15.03,4.06-4.61,2.71-8.57,6.21-11.87,10.52-3.31,4.31-5.86,9.07-7.66,14.28-1.8,5.21-2.71,10.32-2.71,15.33,0,8.02,2.15,14.48,6.46,19.39,4.31,4.91,9.97,7.36,16.98,7.36,5.41,0,10.37-1.4,14.88-4.21,4.51-2.8,8.42-6.36,11.72-10.67,3.31-4.31,5.86-9.17,7.66-14.58,1.8-5.41,2.7-10.72,2.7-15.93,0-7.41-2.25-13.52-6.76-18.33-4.51-4.81-9.97-7.21-16.38-7.21Z"/>
      <path class="cls-1" d="m170.11,0C76.16,0,0,76.16,0,170.11s76.16,170.11,170.11,170.11,170.11-76.16,170.11-170.11S264.06,0,170.11,0Zm101.14,189.2c-5.51,11.02-12.12,20.04-19.84,27.05-7.72,7.02-15.53,12.17-23.44,15.48-7.92,3.31-14.28,4.96-19.09,4.96-6.42,0-11.57-1.6-15.48-4.81-3.91-3.2-6.06-7.31-6.46-12.32h-.6c-3.61,6.01-8.32,10.42-14.13,13.22-5.81,2.81-11.92,4.21-18.33,4.21s-12.47-1.35-18.18-4.06-10.72-6.41-15.03-11.12c-4.31-4.71-7.72-10.17-10.22-16.38-2.51-6.21-3.76-12.82-3.76-19.84,0-9.42,1.55-18.73,4.66-27.95,3.1-9.21,7.51-17.43,13.22-24.65,5.71-7.21,12.62-13.02,20.74-17.43,8.11-4.4,17.08-6.61,26.9-6.61,6.41,0,13.02,1.55,19.84,4.66,6.81,3.11,11.92,8.57,15.33,16.38l4.81-16.23h24.65l-18.94,77.54c-.6,2-1.16,4.16-1.65,6.46-.5,2.31-.75,4.46-.75,6.46s.4,3.66,1.2,4.96c.8,1.31,2.1,1.95,3.91,1.95,4.21,0,8.46-1.35,12.77-4.06,4.31-2.7,8.12-6.51,11.42-11.42,3.31-4.91,6.01-10.77,8.11-17.58,2.1-6.81,3.16-14.22,3.16-22.24,0-12.02-2.1-22.59-6.31-31.71-4.21-9.12-9.97-16.83-17.28-23.14-7.32-6.31-15.93-11.07-25.85-14.28-9.92-3.2-20.59-4.81-32.01-4.81-12.83,0-24.5,2.25-35.01,6.76-10.52,4.51-19.49,10.72-26.9,18.63-7.42,7.92-13.13,17.33-17.13,28.25-4.01,10.92-6.01,22.69-6.01,35.32s2.2,25.2,6.61,35.92c4.41,10.72,10.52,19.94,18.33,27.65,7.81,7.72,17.18,13.68,28.1,17.88,10.92,4.21,22.79,6.31,35.62,6.31s24.59-2.15,35.92-6.46c11.32-4.31,20.89-10.37,28.7-18.18h25.25c-10.22,15.63-23.35,27.6-39.37,35.92-16.03,8.31-33.46,12.47-52.3,12.47-16.03,0-31.06-2.81-45.08-8.42-14.03-5.61-26.3-13.42-36.82-23.44-10.52-10.02-18.78-21.89-24.8-35.62-6.01-13.72-9.02-28.6-9.02-44.63s3.01-30.6,9.02-44.33c6.01-13.72,14.22-25.59,24.65-35.62,10.42-10.02,22.54-17.93,36.37-23.74,13.83-5.81,28.55-8.72,44.18-8.72,13.62,0,26.75,2.21,39.37,6.61,12.62,4.41,23.74,10.57,33.36,18.48,9.62,7.92,17.33,17.54,23.14,28.85,5.81,11.32,8.72,23.89,8.72,37.72,0,15.43-2.76,28.66-8.27,39.67Z"/>
    </g>
  </g>
</svg>