<?xml version="1.0" encoding="UTF-8"?>
<svg id="Layer_1" data-name="Layer 1" xmlns="http://www.w3.org/2000/svg" viewBox="0 0 1215.85 432.79">
  <defs>
    <style>
      .cls-1 {
        fill: #001d33;
      }

      .cls-2 {
        fill: #eea808;
      }

      .cls-3, .cls-4 {
        fill: #fff;
      }

      .cls-5 {
        fill: #ff0a61;
      }

      .cls-6 {
        fill: #ff40f0;
      }

      .cls-7 {
        fill: #00a7ff;
      }

      .cls-8 {
        fill: #9d90fa;
      }

      .cls-9 {
        fill: #310000;
      }

      .cls-10 {
        fill: #11005d;
      }

      .cls-11 {
        fill: #49001c;
      }

      .cls-12 {
        fill: #480036;
      }

      .cls-13 {
        fill: #faaf40;
      }

      .cls-13, .cls-14, .cls-15, .cls-4 {
        fill-rule: evenodd;
      }

      .cls-14 {
        fill: #1b75bb;
      }

      .cls-15 {
        fill: #f05a28;
      }
    </style>
  </defs>
  <g>
    <polygon class="cls-14" points="1035.49 5.93 1215.85 6.22 1198.72 191.15 1123.36 210.71 1051.74 191.01 1035.49 5.93"/>
    <polygon class="cls-4" points="1182.99 87.73 1181.05 110.83 1175.82 161.75 1121.25 172.62 1121.36 172.63 1073.24 162.69 1070.1 138.37 1070.01 138.42 1068.36 126.38 1094.11 126.51 1097.44 143.81 1121.39 149.34 1121.39 149.25 1154.57 142.78 1157.86 110.83 1067.89 110.34 1064.65 88.1 1064.81 88.1 1064.81 88.1 1126.74 70.83 1063.22 70.89 1060.35 47.72 1188.46 47.72 1185.28 75.35 1146.36 87.73 1182.99 87.73"/>
  </g>
  <g>
    <path class="cls-15" d="m812.75,1.5l16.28,185.42,77.53,19.73,69.71-19.59L993.44,1.79l-180.68-.29Zm49.02,82.28h108.01l-5.56,76.68-57.82,17.78-.14-.44-.08.35-63.76-14.3-2.14-37.73h22.68s1.15,19.61,1.15,19.61l41.95,8.85h0l36.24-11.14,1.78-36.95h-100.79v-.14l-3.26.14s0-.05,0-.09c-.2-3.46-5.45-76.5-5.45-76.5h137.28l-3.03,22.71h-108.41l1.36,31.17Z"/>
    <path class="cls-4" d="m969.78,83.79l-5.56,76.68-57.82,17.78-.14-.44-.08.35-63.76-14.3-2.14-37.73h22.68s1.15,19.61,1.15,19.61l41.95,8.85h0l36.24-11.14,1.78-36.95h-100.79v-.14l-3.26.14s0-.05,0-.09c-.2-3.46-5.45-76.5-5.45-76.5h137.28l-3.03,22.71h-108.41l1.36,31.17h108.01Z"/>
  </g>
  <g>
    <polygon class="cls-13" points="925.86 227.67 1106.14 227.95 1089.02 412.82 1022.5 432.37 942.1 412.68 925.86 227.67"/>
    <polygon class="cls-4" points="999.91 383.19 979.01 379.89 979.16 270.93 1000.13 270.96 999.91 383.19"/>
    <polygon class="cls-4" points="1000.02 363 996.81 382.01 953.17 377.13 951.12 356.75 1000.02 363"/>
    <polygon class="cls-4" points="1076.09 270.95 1073.3 292.07 1021.1 291.65 1021.1 270.95 1076.09 270.95"/>
    <rect class="cls-3" x="1021.18" y="280.46" width="20.97" height="49.52" transform="translate(-.96 3.26) rotate(-.18)"/>
    <polygon class="cls-4" points="1073.33 315.63 1071.99 336.6 1021.1 336.73 1021.1 315.63 1073.33 315.63"/>
    <polygon class="cls-4" points="1069.97 375.7 1047.3 375.76 1049.93 326.24 1072.3 326.18 1069.97 375.7"/>
    <polygon class="cls-4" points="1070.71 361.33 1069.92 382.29 1021.72 382.29 1022.06 362.2 1070.71 361.33"/>
  </g>
  <g>
    <rect class="cls-10" y="1.43" width="208.81" height="204.92" rx="39.14" ry="39.14"/>
    <g>
      <path class="cls-8" d="m57.9,123.12l-7.03,21.09c-.26.77-.64,1.02-1.41,1.02h-12.78c-.77,0-1.02-.38-.89-1.28l26.33-74.9c.51-1.28.89-2.56,1.15-6.9,0-.51.26-.89.77-.89h17.77c.64,0,.77.13.89.77l29.53,82.06c.13.77,0,1.15-.77,1.15h-14.32c-.64,0-1.02-.26-1.28-.77l-7.41-21.35h-30.55Zm26.46-13.93c-2.68-8.44-8.69-26.2-11.25-35.15h-.13c-2.05,8.56-7.16,23.52-10.99,35.15h22.37Z"/>
      <path class="cls-8" d="m132.41,117.24c.38,8.95,6.26,16.1,19.3,16.1,5.75,0,10.99-1.02,15.85-3.07.38-.26.77-.13.77.51v10.61c0,.77-.26,1.15-.77,1.41-4.86,2.3-10.48,3.71-19.17,3.71-23.26,0-31.57-16.36-31.57-32.08,0-17.77,10.74-33.49,30.04-33.49s26.2,14.83,26.2,26.97c0,3.58-.13,6.52-.51,7.92-.13.51-.38.77-1.02.89-1.79.38-6.9.51-13.17.51h-25.95Zm19.04-10.99c4.86,0,6.52,0,7.03-.13v-1.02c0-3.71-2.56-11.89-12.27-11.89-8.82,0-12.78,6.77-13.8,13.04h19.04Z"/>
    </g>
  </g>
  <g>
    <rect class="cls-9" x="251.47" width="208.81" height="204.92" rx="39.14" ry="39.14"/>
    <g>
      <path class="cls-2" d="m325.72,125.8l-7.29,21.88c-.27.8-.66,1.06-1.46,1.06h-13.26c-.8,0-1.06-.4-.93-1.33l27.32-77.72c.53-1.33.93-2.65,1.19-7.16,0-.53.27-.93.8-.93h18.44c.66,0,.8.13.93.8l30.64,85.15c.13.8,0,1.19-.8,1.19h-14.85c-.66,0-1.06-.27-1.33-.8l-7.69-22.15h-31.7Zm27.45-14.46c-2.79-8.75-9.02-27.19-11.67-36.47h-.13c-2.12,8.89-7.43,24.4-11.41,36.47h23.21Z"/>
      <path class="cls-2" d="m390.84,65.32c0-5.44,3.85-9.15,9.15-9.15,5.7,0,9.02,3.85,9.02,9.15s-3.58,9.15-9.15,9.15-9.02-3.71-9.02-9.15Zm.93,18.97c0-.66.4-.93,1.06-.93h14.06c.8,0,1.06.13,1.06.93v63.4c0,.8-.27,1.06-1.19,1.06h-13.66c-.93,0-1.33-.4-1.33-1.19v-63.26Z"/>
    </g>
  </g>
  <g>
    <rect class="cls-11" x="502.02" y=".33" width="208.81" height="204.92" rx="39.14" ry="39.14"/>
    <g>
      <path class="cls-5" d="m581.57,142.24c0,.81-.23,1.04-.92,1.04h-12.11c-.69,0-.92-.35-.92-1.04v-73.81c0-.81.35-.92.92-.92h12.11c.69,0,.92.23.92.92v73.81Z"/>
      <path class="cls-5" d="m593.22,115.36c0-16.72,12.46-30.1,32.76-30.1,1.61,0,3,.12,4.96.35v-23.64c0-.58.23-.81.69-.81h12.57c.58,0,.58.23.58.69v69.66c0,2.31.23,5.31.46,7.38,0,.58-.12.81-.69,1.04-7.5,3.23-14.88,4.5-21.8,4.5-16.72,0-29.53-9.69-29.53-29.06Zm37.71-17.65c-1.5-.58-3.34-.81-5.42-.81-10.26,0-17.99,6.57-17.99,17.76,0,12.57,7.5,17.76,16.72,17.76,2.31,0,4.61-.23,6.69-.92v-33.79Z"/>
    </g>
  </g>
  <g>
    <rect class="cls-1" x=".14" y="227.66" width="208.81" height="204.92" rx="39.14" ry="39.14"/>
    <g>
      <path class="cls-7" d="m47.79,288.73c0-.64.26-1.02.9-1.02,4.86-.13,14.33-.38,23.67-.38,24.82,0,34.04,13.82,34.04,27.9,0,20.35-15.74,29.18-35.06,29.18h-8.06v26.23c0,.64-.26,1.02-1.02,1.02h-13.44c-.64,0-1.02-.26-1.02-.9v-82.02Zm15.48,41.97c2.18.13,3.84.13,8.06.13,10.75,0,19.83-3.58,19.83-15.23,0-9.34-6.65-14.84-18.43-14.84-4.48,0-8.06.13-9.47.26v29.69Z"/>
      <path class="cls-7" d="m140.69,319.69c-6.78,0-9.09,2.82-9.09,5.5s1.92,4.73,10.11,7.93c14.59,5.37,19.58,11.13,19.58,20.22,0,12.03-9.47,19.58-25.21,19.58-7.55,0-14.2-1.41-18.04-3.58-.64-.38-.9-.64-.9-1.41v-12.16c0-.64.51-.9,1.02-.64,5.5,3.58,12.54,5.12,18.3,5.12,6.65,0,9.85-2.3,9.85-5.63s-2.43-5.25-10.36-8.45c-13.95-5.12-18.94-10.88-18.94-20.09,0-9.73,7.93-18.81,23.93-18.81,7.42,0,13.05,1.02,16.12,2.56.64.38.77.9.77,1.54v11.26c0,.64-.38,1.02-1.15.77-3.97-2.18-10.36-3.71-16-3.71Z"/>
    </g>
  </g>
  <g>
    <rect class="cls-10" x="251.62" y="227.7" width="208.81" height="204.92" rx="39.14" ry="39.14"/>
    <g>
      <path class="cls-8" d="m303.5,289.8c0-.63.25-1.01.89-1.01,4.82-.13,14.19-.38,23.44-.38,24.58,0,33.71,13.68,33.71,27.62,0,20.15-15.59,28.89-34.72,28.89h-7.98v25.98c0,.63-.25,1.01-1.01,1.01h-13.31c-.63,0-1.01-.25-1.01-.89v-81.22Zm15.33,41.56c2.15.13,3.8.13,7.98.13,10.64,0,19.64-3.55,19.64-15.08,0-9.25-6.59-14.7-18.25-14.7-4.44,0-7.98.13-9.38.25v29.4Z"/>
      <path class="cls-8" d="m384.6,309.44c.76,0,1.14.25,1.39,1.01.63,1.65,1.14,4.82,1.27,7.6,4.31-5.32,11.53-9.88,20.27-9.88.76,0,1.01.13,1.01.89v13.43c0,.63-.25.89-1.14.89-9-.25-16.47,2.91-19.39,6.72v40.8c0,.76-.38,1.01-1.14,1.01h-13.18c-.89,0-1.14-.38-1.14-1.01v-43.72c0-5.45-.13-12.8-.63-16.98,0-.63.13-.76.76-.76h11.91Z"/>
    </g>
  </g>
  <g>
    <rect class="cls-12" x="502.17" y="227.87" width="208.81" height="204.92" rx="39.14" ry="39.14"/>
    <g>
      <path class="cls-6" d="m588.54,330.47l23.42,38.03c.46.58.12,1.04-.46,1.16h-14.26c-.93,0-1.39-.23-1.74-.93-5.57-9.51-11.25-19.13-16.93-29.1h-.12c-5.22,9.74-10.67,19.6-16.12,29.1-.35.7-.7.93-1.39.93h-13.57c-.81,0-.81-.7-.46-1.16l22.73-37.11-22.26-36.87c-.35-.58,0-1.04.58-1.04h14.15c.7,0,1.04.12,1.39.81,5.1,9.62,10.9,19.13,16.12,28.76h.12c5.1-9.62,10.55-19.13,15.89-28.64.23-.58.58-.93,1.39-.93h12.99c.7,0,.81.46.46,1.16l-21.92,35.83Z"/>
      <path class="cls-6" d="m614.17,341.6c0-16.81,12.52-30.26,32.93-30.26,1.62,0,3.01.12,4.99.35v-23.77c0-.58.23-.81.7-.81h12.64c.58,0,.58.23.58.7v70.04c0,2.32.23,5.33.46,7.42,0,.58-.12.81-.7,1.04-7.54,3.25-14.96,4.52-21.92,4.52-16.81,0-29.68-9.74-29.68-29.22Zm37.92-17.74c-1.51-.58-3.36-.81-5.45-.81-10.32,0-18.09,6.61-18.09,17.86,0,12.64,7.54,17.86,16.81,17.86,2.32,0,4.64-.23,6.73-.93v-33.97Z"/>
    </g>
  </g>
</svg>